<?xml version="1.0" encoding="UTF-8" standalone="no"?>
<!-- Created with Inkscape (http://www.inkscape.org/) -->

<svg
   xmlns:dc="http://purl.org/dc/elements/1.1/"
   xmlns:cc="http://creativecommons.org/ns#"
   xmlns:rdf="http://www.w3.org/1999/02/22-rdf-syntax-ns#"
   xmlns:svg="http://www.w3.org/2000/svg"
   xmlns="http://www.w3.org/2000/svg"
   xmlns:sodipodi="http://sodipodi.sourceforge.net/DTD/sodipodi-0.dtd"
   xmlns:inkscape="http://www.inkscape.org/namespaces/inkscape"
   inkscape:version="0.91 r13725"
   version="1.1"
   id="svg2"
   viewBox="0 0 115.15739 115.15739"
   height="32.499973mm"
   width="32.499973mm"
   sodipodi:docname="logo.svg"
   inkscape:export-filename="/home/ef/Pictures/svg/disiko_256.png"
   inkscape:export-xdpi="200.07001"
   inkscape:export-ydpi="200.07001">
  <defs
     id="defs4">
    <filter
       inkscape:menu-tooltip="In and out glow with a possible offset and colorizable flood"
       inkscape:menu="Shadows and Glows"
       inkscape:label="Cutout Glow"
       style="color-interpolation-filters:sRGB"
       id="filter4884">
      <feOffset
         dy="3"
         dx="3"
         id="feOffset4886" />
      <feGaussianBlur
         stdDeviation="3"
         result="blur"
         id="feGaussianBlur4888" />
      <feFlood
         flood-color="rgb(0,0,0)"
         flood-opacity="1"
         result="flood"
         id="feFlood4890" />
      <feComposite
         in="flood"
         in2="SourceGraphic"
         operator="in"
         result="composite"
         id="feComposite4892" />
      <feBlend
         in="blur"
         in2="composite"
         mode="normal"
         id="feBlend4894" />
    </filter>
    <filter
       style="color-interpolation-filters:sRGB"
       inkscape:label="Drop Shadow"
       id="filter4992">
      <feFlood
         flood-opacity="0.270588"
         flood-color="rgb(0,0,0)"
         result="flood"
         id="feFlood4994" />
      <feComposite
         in="flood"
         in2="SourceGraphic"
         operator="in"
         result="composite1"
         id="feComposite4996" />
      <feGaussianBlur
         in="composite1"
         stdDeviation="2.5"
         result="blur"
         id="feGaussianBlur4998" />
      <feOffset
         dx="6"
         dy="6"
         result="offset"
         id="feOffset5000" />
      <feComposite
         in="SourceGraphic"
         in2="offset"
         operator="over"
         result="composite2"
         id="feComposite5002" />
    </filter>
  </defs>
  <sodipodi:namedview
     inkscape:window-maximized="1"
     inkscape:window-y="27"
     inkscape:window-x="0"
     inkscape:window-height="713"
     inkscape:window-width="1366"
     showgrid="false"
     inkscape:current-layer="layer1"
     inkscape:document-units="px"
     inkscape:cy="75.809888"
     inkscape:cx="6.4137081"
     inkscape:zoom="1.979899"
     inkscape:pageshadow="2"
     inkscape:pageopacity="0.0"
     borderopacity="1.0"
     bordercolor="#666666"
     pagecolor="#ffffff"
     id="base"
     fit-margin-top="0"
     fit-margin-left="0"
     fit-margin-right="0"
     fit-margin-bottom="0" />
  <metadata
     id="metadata7">
    <rdf:RDF>
      <cc:Work
         rdf:about="">
        <dc:format>image/svg+xml</dc:format>
        <dc:type
           rdf:resource="http://purl.org/dc/dcmitype/StillImage" />
        <dc:title></dc:title>
      </cc:Work>
    </rdf:RDF>
  </metadata>
  <g
     inkscape:label="Layer 1"
     inkscape:groupmode="layer"
     id="layer1"
     transform="translate(316.70935,-477.58542)">
    <rect
       id="rect3340"
       width="115.15739"
       height="115.15739"
       x="-316.70935"
       y="477.58542"
       style="fill:#448aff;fill-opacity:1"
       rx="8.0812206"
       ry="8.0812206" />
    <g
       id="g4713"
       style="filter:url(#filter4992)"
       transform="matrix(0.86929181,0.17636623,-0.17636623,0.86929181,58.557949,114.19389)">
      <g
         id="text3336"
         style="font-style:normal;font-weight:normal;font-size:35.13990402px;line-height:125%;font-family:sans-serif;letter-spacing:0px;word-spacing:0px;fill:#ffffff;fill-opacity:1;stroke:none;stroke-width:1px;stroke-linecap:butt;stroke-linejoin:miter;stroke-opacity:1"
         transform="matrix(0.86208597,-0.50676205,0.50676205,0.86208597,0,0)">
        <path
           id="path4701"
           style="font-style:normal;font-variant:normal;font-weight:normal;font-stretch:normal;font-size:35.13990402px;line-height:125%;font-family:'Great Day Bold Personal Use';-inkscape-font-specification:'Great Day Bold Personal Use, Normal';text-align:start;writing-mode:lr-tb;text-anchor:start;fill:#ffffff"
           d="m -505.40294,316.06129 q -1.44074,0.77308 -3.58427,1.86242 -2.10839,1.08933 -4.53305,2.42465 -2.42465,1.33532 -4.91958,2.91661 -2.4598,1.5813 -4.60333,3.37343 -2.1084,1.757 -3.65455,3.72483 -1.54616,1.9327 -2.07326,4.00595 -0.28112,1.01906 0.24598,2.53007 0.56224,1.47588 2.03812,3.09232 l -3.09231,-0.56224 q -0.8785,-1.01906 -1.30018,-2.07326 -0.38654,-1.05419 -0.38654,-2.14353 0,-1.51102 0.66766,-2.98689 0.7028,-1.51102 1.82727,-2.95176 1.47588,-1.86241 3.65455,-3.68969 2.21382,-1.82727 4.70875,-3.51399 2.53007,-1.68671 5.09529,-3.12745 2.60035,-1.47587 4.88444,-2.60035 l 5.02501,-0.28112 z m -39.04043,15.07502 q -1.89756,-1.89756 -2.38952,-4.42763 -0.45682,-2.53007 0.63252,-5.2007 1.15962,-2.4598 3.33829,-4.70875 2.17868,-2.2841 4.81417,-4.18165 2.67063,-1.93269 5.51696,-3.40857 2.88148,-1.51102 5.37641,-2.45979 1.72185,-0.66766 3.90053,-1.26504 2.17867,-0.59738 4.60333,-1.01906 2.42465,-0.45682 5.025,-0.73794 2.60036,-0.28112 5.23585,-0.28112 4.00595,0 7.80106,0.77308 3.83025,0.77308 6.81714,2.53008 2.98689,1.75699 4.77903,4.60332 1.82727,2.84634 1.82727,6.99284 0,2.31924 -0.77308,4.60333 -0.73794,2.24896 -2.00297,4.39249 -1.26504,2.10839 -2.91661,4.11137 -1.65158,1.96783 -3.44371,3.72483 -1.79214,1.75699 -3.65455,3.30315 -1.82728,1.51102 -3.44372,2.70577 -1.05419,0.77308 -2.63549,1.79214 -1.58129,1.05419 -3.51399,2.14353 -1.89755,1.08934 -4.04109,2.1084 -2.10839,1.05419 -4.28707,1.86241 -2.17867,0.80822 -4.3222,1.30018 -2.1084,0.5271 -3.97081,0.5271 -1.757,0 -3.19773,-0.56224 -1.44074,-0.5271 -2.17868,-1.54616 -0.7028,-0.98392 -0.49196,-2.35437 0.24598,-1.37046 1.79214,-3.02203 1.08933,-0.94878 2.63549,-1.86242 1.5813,-0.8785 3.26801,-1.65157 1.68672,-0.77308 3.37343,-1.37046 1.68672,-0.63252 3.02203,-1.01906 l 5.69267,0.63252 q -0.84336,0.24598 -2.14354,0.63252 -1.26503,0.38654 -2.77605,0.91364 -1.51101,0.49195 -3.09231,1.05419 -1.5813,0.59738 -3.02203,1.19476 -1.4056,0.63252 -2.60035,1.2299 -1.15962,0.59737 -1.79214,1.15961 -1.30018,1.08934 -1.65157,1.89756 -0.31626,0.80822 0,1.33531 0.31625,0.56224 1.19475,0.84336 0.8785,0.28112 2.00298,0.31626 1.15961,0.0351 2.42465,-0.14056 1.30018,-0.1757 2.49493,-0.59738 1.08934,-0.38654 3.23287,-1.33531 2.14354,-0.91364 4.74389,-2.2841 2.60035,-1.33531 5.37641,-3.05717 2.77605,-1.68671 5.16556,-3.61941 1.89756,-1.54615 4.18165,-3.68969 2.2841,-2.14353 4.25193,-4.67361 2.00297,-2.53007 3.33829,-5.30612 1.33532,-2.77605 1.33532,-5.62239 0,-1.26503 -0.31626,-2.56521 -0.28112,-1.30018 -0.94878,-2.56521 -1.08934,-2.1084 -2.88147,-3.54913 -1.79214,-1.44074 -4.11137,-2.2841 -2.28409,-0.87849 -4.91959,-1.26503 -2.63549,-0.38654 -5.41154,-0.38654 -2.53008,0 -5.06015,0.28112 -2.49493,0.24598 -4.84931,0.7028 -2.31923,0.42167 -4.39248,0.98391 -2.07326,0.56224 -3.68969,1.15962 -2.03812,0.77308 -4.39249,2.00297 -2.35437,1.19476 -4.67361,2.74092 -2.28409,1.51101 -4.32221,3.30315 -2.00297,1.75699 -3.37343,3.65455 -0.91363,1.47587 -1.26503,2.91661 -0.31626,1.4056 -0.0351,2.84633 0.31626,1.4056 1.26503,2.84633 0.98392,1.44074 2.70578,2.95176 l -4.18165,-1.0542 z"
           inkscape:connector-curvature="0" />
        <path
           id="path4703"
           style="font-style:normal;font-variant:normal;font-weight:normal;font-stretch:normal;font-size:35.13990402px;line-height:125%;font-family:'Great Day Bold Personal Use';-inkscape-font-specification:'Great Day Bold Personal Use, Normal';text-align:start;writing-mode:lr-tb;text-anchor:start;fill:#ffffff"
           d="m -488.20635,337.25065 q 0.3514,-0.1757 0.84336,-0.49196 0.5271,-0.3514 1.08934,-0.73793 0.56223,-0.38654 1.12447,-0.77308 0.59738,-0.42168 1.08934,-0.77308 0.38654,-0.28112 0.94878,-0.63252 0.59738,-0.38654 0.84336,-0.56224 l 0.21083,2.24896 q -0.31625,0.21084 -0.77307,0.56224 -0.42168,0.31625 -0.8785,0.66765 -1.12448,0.8785 -2.45979,1.79214 -1.33532,0.91364 -2.31924,1.30018 -0.80822,0.24597 -1.33531,0.0703 -0.5271,-0.21084 -0.80822,-0.66766 -0.28112,-0.49196 -0.28112,-1.12448 -0.0351,-0.66766 0.14056,-1.33532 0.38654,-1.37045 1.15962,-2.81119 0.77307,-1.44073 1.65157,-2.77605 0.91364,-1.33532 1.79214,-2.49493 0.91363,-1.15962 1.58129,-1.96784 l 3.02203,0 q -0.3514,0.31626 -0.94877,0.98392 -0.59738,0.66766 -1.30018,1.58129 -0.66766,0.8785 -1.4056,1.89756 -0.73793,1.01906 -1.37045,2.07325 -0.63252,1.01906 -1.12448,1.96784 -0.45682,0.94878 -0.66766,1.68671 -0.0703,0.21084 -0.0351,0.31626 0.0351,0.10542 0.21084,0 z m 5.51697,-14.89932 q 0,-0.91363 0.63251,-1.58129 0.66766,-0.66766 1.61644,-0.66766 0.91364,0 1.5813,0.66766 0.66765,0.66766 0.66765,1.58129 0,0.94878 -0.66765,1.61644 -0.66766,0.63252 -1.5813,0.63252 -0.94878,0 -1.61644,-0.63252 -0.63251,-0.66766 -0.63251,-1.61644 z"
           inkscape:connector-curvature="0" />
        <path
           id="path4705"
           style="font-style:normal;font-variant:normal;font-weight:normal;font-stretch:normal;font-size:35.13990402px;line-height:125%;font-family:'Great Day Bold Personal Use';-inkscape-font-specification:'Great Day Bold Personal Use, Normal';text-align:start;writing-mode:lr-tb;text-anchor:start;fill:#ffffff"
           d="m -484.01042,334.61516 q 0.94877,-0.73794 1.54615,-1.19476 0.59738,-0.49196 1.0542,-0.87849 0.45682,-0.42168 0.8785,-0.84336 0.45682,-0.42168 1.05419,-1.01906 0.7028,-0.80822 1.33532,-1.65157 0.63252,-0.84336 1.4056,-1.65158 0.31626,-0.31626 0.73793,-0.66766 0.45682,-0.38654 0.8785,-0.63252 0.45682,-0.28112 0.8785,-0.3514 0.42168,-0.10542 0.7028,0.14056 l -0.0351,0 q 0.1757,0.10542 0.24598,0.42168 0.10542,0.28112 0.0351,0.73794 -0.0703,0.42168 -0.38654,0.98392 -0.28112,0.5271 -0.8785,1.15961 l 0.0351,0 q -0.59738,0.7028 -1.12448,1.2299 -0.49196,0.49196 -0.87849,0.80822 -0.3514,0.3514 -0.49196,0.5271 -0.10542,0.14056 -0.0703,0.42168 0.0351,0.21084 0.28112,0.66765 0.24598,0.45682 0.84335,1.12448 0.31626,0.38654 0.56224,0.80822 0.28112,0.42168 0.3514,0.91364 l 0.7028,-0.45682 -0.0351,0 3.02203,-2.14354 0.21084,2.24896 -0.84336,0.59738 q -0.70279,0.49195 -1.65157,1.22989 -0.91364,0.7028 -1.96784,1.37046 -1.01905,0.66766 -2.10839,1.15962 -1.0542,0.45681 -2.00298,0.45681 -1.15961,0 -2.21381,-0.63251 -0.14056,-0.10542 -0.38654,-0.3514 -0.21084,-0.24598 -0.38654,-0.59738 -0.14056,-0.3514 -0.1757,-0.73794 0,-0.38654 0.31626,-0.77308 0.14056,-0.14056 0.42168,-0.24598 0.31626,-0.10542 0.66766,-0.0703 0.38654,0.0351 0.77308,0.21084 0.38654,0.1757 0.7028,0.56224 0.31625,0.42168 0.80821,0.45682 0.5271,0 0.94878,-0.24598 0.45682,-0.28112 0.7028,-0.73794 0.24598,-0.45682 0.10542,-0.91363 -0.21084,-0.66766 -0.80822,-1.37046 -0.56224,-0.73794 -0.91364,-1.4056 l 0.0351,-0.0351 -1.19475,1.0542 q -0.49196,0.42168 -1.08934,0.84336 -0.59738,0.42168 -1.72186,1.19476 l -0.87849,-1.72186 z"
           inkscape:connector-curvature="0" />
        <path
           id="path4707"
           style="font-style:normal;font-variant:normal;font-weight:normal;font-stretch:normal;font-size:35.13990402px;line-height:125%;font-family:'Great Day Bold Personal Use';-inkscape-font-specification:'Great Day Bold Personal Use, Normal';text-align:start;writing-mode:lr-tb;text-anchor:start;fill:#ffffff"
           d="m -470.91092,337.25065 q 0.3514,-0.1757 0.84335,-0.49196 0.5271,-0.3514 1.08934,-0.73793 0.56224,-0.38654 1.12448,-0.77308 0.59738,-0.42168 1.08934,-0.77308 0.38653,-0.28112 0.94877,-0.63252 0.59738,-0.38654 0.84336,-0.56224 l 0.21084,2.24896 q -0.31626,0.21084 -0.77308,0.56224 -0.42168,0.31625 -0.8785,0.66765 -1.12447,0.8785 -2.45979,1.79214 -1.33532,0.91364 -2.31923,1.30018 -0.80822,0.24597 -1.33532,0.0703 -0.5271,-0.21084 -0.80822,-0.66766 -0.28112,-0.49196 -0.28112,-1.12448 -0.0351,-0.66766 0.14056,-1.33532 0.38654,-1.37045 1.15962,-2.81119 0.77308,-1.44073 1.65158,-2.77605 0.91363,-1.33532 1.79213,-2.49493 0.91364,-1.15962 1.5813,-1.96784 l 3.02203,0 q -0.3514,0.31626 -0.94878,0.98392 -0.59738,0.66766 -1.30018,1.58129 -0.66765,0.8785 -1.40559,1.89756 -0.73794,1.01906 -1.37046,2.07325 -0.63252,1.01906 -1.12447,1.96784 -0.45682,0.94878 -0.66766,1.68671 -0.0703,0.21084 -0.0351,0.31626 0.0351,0.10542 0.21084,0 z m 5.51696,-14.89932 q 0,-0.91363 0.63252,-1.58129 0.66766,-0.66766 1.61644,-0.66766 0.91363,0 1.58129,0.66766 0.66766,0.66766 0.66766,1.58129 0,0.94878 -0.66766,1.61644 -0.66766,0.63252 -1.58129,0.63252 -0.94878,0 -1.61644,-0.63252 -0.63252,-0.66766 -0.63252,-1.61644 z"
           inkscape:connector-curvature="0" />
        <path
           id="path4709"
           style="font-style:normal;font-variant:normal;font-weight:normal;font-stretch:normal;font-size:35.13990402px;line-height:125%;font-family:'Great Day Bold Personal Use';-inkscape-font-specification:'Great Day Bold Personal Use, Normal';text-align:start;writing-mode:lr-tb;text-anchor:start;fill:#ffffff"
           d="m -446.86095,311.07142 q -1.33532,1.82728 -2.8112,3.86539 -1.44073,2.03812 -2.95175,4.18165 -1.47587,2.1084 -2.98689,4.25193 -1.51101,2.14353 -2.95175,4.21679 0.66766,-0.28112 1.51102,-0.59738 0.87849,-0.31626 1.68671,-0.31626 1.26504,0 1.72186,0.63252 0.49195,0.59738 0.38653,1.44074 -0.0703,0.80821 -0.63251,1.65157 -0.56224,0.84336 -1.33532,1.33532 -0.59738,0.38654 -1.2299,0.7028 -0.63251,0.28112 -1.15961,0.56223 l -1.0542,0.5271 q -0.14056,0.0703 -0.45682,0.21084 -0.28112,0.14056 -0.59738,0.31626 -0.28112,0.1757 -0.5271,0.42168 -0.21084,0.21084 -0.21084,0.42168 0.0703,0.91364 0.38654,1.68671 0.3514,0.77308 0.84336,1.757 l 0.42168,0.94878 -1.96783,1.37045 q -0.3514,-0.5271 -0.77308,-1.30017 -0.38654,-0.80822 -0.73794,-1.65158 -0.3514,-0.8785 -0.59738,-1.68671 -0.24598,-0.84336 -0.31626,-1.44074 0,-0.0351 -0.0351,-0.0351 0,0 0,-0.0351 -0.98392,1.44074 -1.93269,2.88147 -0.91364,1.4056 -1.72186,2.6355 l -3.05717,0 q 2.17867,-3.19774 4.63847,-6.74687 2.45979,-3.58427 4.98986,-7.23882 2.53008,-3.68969 5.06015,-7.3091 2.53007,-3.65455 4.91959,-6.92256 l 3.47885,-0.73794 z m -15.03988,21.47049 q 0.45682,-0.28112 0.98392,-0.5271 0.56223,-0.24598 1.15961,-0.49196 0.8785,-0.38654 1.79214,-0.84336 0.94877,-0.45682 1.79213,-1.0542 0.21084,-0.21084 0.10542,-0.28112 -0.10542,-0.10542 -0.49196,-0.0351 -0.56223,0.21084 -1.26503,0.56224 -0.7028,0.3514 -1.44074,0.77308 -0.7028,0.42168 -1.37046,0.8785 -0.66765,0.45682 -1.15961,0.8785 l -0.10542,0.14056 z"
           inkscape:connector-curvature="0" />
        <path
           id="path4711"
           style="font-style:normal;font-variant:normal;font-weight:normal;font-stretch:normal;font-size:35.13990402px;line-height:125%;font-family:'Great Day Bold Personal Use';-inkscape-font-specification:'Great Day Bold Personal Use, Normal';text-align:start;writing-mode:lr-tb;text-anchor:start;fill:#ffffff"
           d="m -443.823,326.88438 q 0.77308,0.21084 1.08934,0.66766 0.31626,0.42168 0.31626,1.08934 0,0.80821 -0.42168,1.75699 -0.38654,0.91364 -1.01906,1.82728 -0.59738,0.87849 -1.30018,1.68671 -0.70279,0.80822 -1.26503,1.37046 -0.0351,0.42168 0.0703,0.63252 0.10542,0.1757 0.56223,-0.10542 0.80822,-0.42168 1.44074,-0.8785 0.63252,-0.49196 1.12448,-0.84336 l 1.19475,-0.80822 0.21084,2.24896 -0.84335,0.63252 q -0.59738,0.45681 -1.44074,1.01905 -0.80822,0.5271 -1.61644,0.91364 -0.59737,0.31626 -1.12447,0.31626 -0.59738,0 -1.0542,-0.31626 -0.42168,-0.3514 -0.73794,-0.94878 -0.63252,0.5271 -1.40559,1.08934 -0.77308,0.5271 -1.54616,0.94878 -0.77308,0.42168 -1.54615,0.7028 -0.73794,0.28111 -1.37046,0.28111 -0.84336,0 -1.37046,-0.59737 -0.56224,-0.59738 -0.56224,-1.47588 0,-0.73794 0.3514,-1.65158 0.31626,-0.94877 0.91364,-1.93269 0.59738,-0.98392 1.4056,-1.96783 0.80821,-1.01906 1.72185,-1.89756 0.98392,-0.91364 2.07326,-1.68671 1.12447,-0.80822 2.21381,-1.33532 1.08934,-0.5271 2.10839,-0.73794 1.01906,-0.21084 1.82728,0 z m -2.60035,4.42763 q 0.10542,0.24598 0.1757,0.45682 0.66765,-0.8785 1.01905,-1.54616 0.49196,-1.15961 0.1757,-1.33531 -0.28112,-0.21084 -1.51101,0.38653 -1.9327,0.94878 -3.51399,2.53008 -1.5813,1.54615 -3.02204,3.58427 -0.77307,1.15961 -0.98391,1.72185 -0.1757,0.56224 0,0.73794 0.21084,0.14056 0.7028,-0.0351 0.52709,-0.21084 1.19475,-0.59738 0.66766,-0.42168 1.4056,-0.98391 0.73794,-0.56224 1.37045,-1.12448 -0.0351,-0.28112 -0.0703,-0.5271 0,-0.28112 0,-0.56224 0,-0.73794 0.17569,-1.37045 0.1757,-0.63252 0.42168,-1.08934 0.28112,-0.49196 0.63252,-0.77308 0.3514,-0.28112 0.7028,-0.28112 0.66766,0 1.12448,0.77308 l 0,0.0351 z"
           inkscape:connector-curvature="0" />
      </g>
      <path
         style="fill:#ffffff;fill-rule:evenodd;stroke:#ffffff;stroke-width:1px;stroke-linecap:butt;stroke-linejoin:miter;stroke-opacity:1"
         d="m -274.07651,576.01283 6.38742,1.51841 56.11258,-51.87555 0,0"
         id="path5004"
         inkscape:connector-curvature="0"
         sodipodi:nodetypes="cccc" />
    </g>
  </g>
</svg>
